<svg id="visual" viewBox="0 0 960 540" width="960" height="540" xmlns="http://www.w3.org/2000/svg" xmlns:xlink="http://www.w3.org/1999/xlink" version="1.1"><rect x="0" y="0" width="960" height="540" fill="#ffffff"></rect><defs><linearGradient id="grad1_0" x1="43.8%" y1="100%" x2="100%" y2="0%"><stop offset="14.444444444444446%" stop-color="#ffffff" stop-opacity="1"></stop><stop offset="85.55555555555554%" stop-color="#ffffff" stop-opacity="1"></stop></linearGradient></defs><defs><linearGradient id="grad2_0" x1="0%" y1="100%" x2="56.3%" y2="0%"><stop offset="14.444444444444446%" stop-color="#ffffff" stop-opacity="1"></stop><stop offset="85.55555555555554%" stop-color="#ffffff" stop-opacity="1"></stop></linearGradient></defs><g transform="translate(960, 540)"><path d="M-243 0C-231.6 -28 -220.2 -56.1 -210.6 -87.3C-201 -118.4 -193.2 -152.7 -171.8 -171.8C-150.4 -190.9 -115.5 -194.8 -84.6 -204.2C-53.7 -213.5 -26.8 -228.3 0 -243L0 0Z" fill="#169ff7"></path></g><g transform="translate(0, 0)"><path d="M243 0C241.1 33 239.1 65.9 224.5 93C209.9 120 182.6 141.2 157 157C131.4 172.8 107.4 183.3 81.5 196.8C55.6 210.2 27.8 226.6 0 243L0 0Z" fill="#169ff7"></path></g></svg>