<svg id="visual" viewBox="0 0 540 960" width="540" height="960" xmlns="http://www.w3.org/2000/svg" xmlns:xlink="http://www.w3.org/1999/xlink" version="1.1"><rect x="0" y="0" width="540" height="960" fill="#ffffff"></rect><defs><linearGradient id="grad1_0" x1="0%" y1="100%" x2="100%" y2="0%"><stop offset="30%" stop-color="#ffffff" stop-opacity="1"></stop><stop offset="70%" stop-color="#ffffff" stop-opacity="1"></stop></linearGradient></defs><defs><linearGradient id="grad2_0" x1="0%" y1="100%" x2="100%" y2="0%"><stop offset="30%" stop-color="#ffffff" stop-opacity="1"></stop><stop offset="70%" stop-color="#ffffff" stop-opacity="1"></stop></linearGradient></defs><g transform="translate(540, 960)"><path d="M-270 0C-267.1 -36 -264.2 -72 -249.4 -103.3C-234.7 -134.6 -208.2 -161.3 -180.3 -180.3C-152.4 -199.4 -123.3 -210.8 -93 -224.5C-62.7 -238.2 -31.4 -254.1 0 -270L0 0Z" fill="#0083ff"></path></g><g transform="translate(0, 0)"><path d="M270 0C270 39 270.1 78 249.4 103.3C228.8 128.6 187.5 140.3 159.8 159.8C132.1 179.3 118.1 206.7 93.8 226.4C69.4 246 34.7 258 0 270L0 0Z" fill="#0083ff"></path></g></svg>